<svg width="36" height="36" fill="none" xmlns="http://www.w3.org/2000/svg"><path fill-rule="evenodd" clip-rule="evenodd" d="M35.623 22.24a.604.604 0 0 0-.66.144L32.4 25.077V9.079h.003l2.445-2.64a.6.6 0 0 0-.033-.848l-.88-.82 1.222-1.32a.6.6 0 0 0-.034-.847L32.483.16a.6.6 0 0 0-.847.033L27.37 4.798H6.6a3.003 3.003 0 0 0-3-3H3a3.003 3.003 0 0 0-3 3v25.799a.6.6 0 0 0 .6.6h9.083l-1.26 1.512a.6.6 0 0 0 .077.845l2.767 2.303a.6.6 0 0 0 .845-.077l3.071-3.69a1.78 1.78 0 0 0 .394-.894H26.57l-3.606 3.787a.6.6 0 0 0 .435 1.013h12a.6.6 0 0 0 .6-.6V22.797a.6.6 0 0 0-.377-.557zM33.56 6.058 32.4 7.313V6.43l.72-.78.44.408zM31.2 5.96v-.009h.007l1.032-1.113-1.763-1.63-6.113 6.605 1.763 1.63L31.2 5.96zm-6.227 6.051-1.38.403.295-1.408 1.085 1.005zm8.895-8.935-1.761-1.63-.816.881 1.762 1.631.815-.882zM3 2.999h.6a1.8 1.8 0 0 1 1.8 1.8v22.813a2.97 2.97 0 0 0-1.8-.615H3a2.969 2.969 0 0 0-1.8.615V4.798a1.8 1.8 0 0 1 1.8-1.8zm.6 25.198H3a1.8 1.8 0 0 0-1.8 1.8h4.2a1.8 1.8 0 0 0-1.8-1.8zm10.661 3.127-.384.46-1.844-1.535.383-.461a.6.6 0 0 1 .845-.078l.923.767a.6.6 0 0 1 .078.844v.002zM9.73 33.015l1.845 1.535 1.535-1.844-1.844-1.536-1.536 1.845zm5.596-3.02a1.78 1.78 0 0 0-.373-.44l-.923-.767a1.8 1.8 0 0 0-2.535.231l-.814.977H6.6V5.998h19.66L23.076 9.44a.58.58 0 0 0-.126.226l-.008.021a.256.256 0 0 0-.011.035l-.716 3.424a.6.6 0 0 0 .755.699l3.36-.98c.008-.002.016-.006.024-.01a.19.19 0 0 1 .02-.009c.015-.005.03-.013.047-.021a.596.596 0 0 0 .18-.127l4.6-4.97v18.61l-3.487 3.66h-12.39zm9.475 4.8h10v-10.5l-10 10.5zm4-1.2a.6.6 0 0 1-.424-1.024l4.2-4.2a.599.599 0 0 1 1.024.425v4.2a.6.6 0 0 1-.6.6h-4.2zm3.6-1.2v-2.151l-2.151 2.151H32.4zm-10.2-9.599h4.2a.6.6 0 1 1 0 1.2H9.6a.6.6 0 1 1 0-1.2h4.2v-6.6c0-.159.063-.311.175-.424l3.6-3.6a.6.6 0 0 1 .849 0l3.6 3.6a.607.607 0 0 1 .176.425v6.6zm-2.048-7.2L18 13.446l-2.151 2.151h4.303zM15 16.797h6v6h-6v-6zm2.4-7.199h1.2v1.2h-1.2v-1.2zm1.2 15.599h-1.2v1.2h1.2v-1.2z" fill="#000"/></svg>