<svg width="16" height="16" fill="none" xmlns="http://www.w3.org/2000/svg"><path fill-rule="evenodd" clip-rule="evenodd" d="M5 0h6a5 5 0 0 1 5 5v6a5 5 0 0 1-5 5H5a5 5 0 0 1-5-5V5a5 5 0 0 1 5-5zm6 14.5c1.93 0 3.5-1.57 3.5-3.5V5c0-1.93-1.57-3.5-3.5-3.5H5C3.07 1.5 1.5 3.07 1.5 5v6c0 1.93 1.57 3.5 3.5 3.5h6zM4 8a4 4 0 1 1 8 0 4 4 0 0 1-8 0zm1.5 0c0 1.378 1.122 2.5 2.5 2.5s2.5-1.122 2.5-2.5c0-1.379-1.122-2.5-2.5-2.5A2.503 2.503 0 0 0 5.5 8zm7.333-4.3a.533.533 0 1 1-1.066 0 .533.533 0 0 1 1.066 0z" fill="#B0B8BC"/></svg>