<svg width="92" height="26" fill="none" xmlns="http://www.w3.org/2000/svg"><path d="M12.622 16.572V20H3.278v-3.428h9.344zM4.865 1.516V20H.41V1.516h4.456zm16.568 15.03v-5.661c0-.39-.055-.724-.165-1.003a1.322 1.322 0 0 0-.52-.648c-.238-.16-.555-.24-.953-.24-.322 0-.597.054-.825.164-.229.11-.402.275-.52.495-.12.22-.178.5-.178.838h-4.279c0-.635.14-1.223.42-1.764a4.364 4.364 0 0 1 1.218-1.435c.533-.406 1.168-.72 1.904-.94.745-.228 1.574-.342 2.488-.342 1.092 0 2.066.182 2.92.546.864.364 1.545.91 2.044 1.637.5.72.75 1.625.75 2.717v5.624c0 .897.05 1.579.152 2.044.101.457.245.86.431 1.206V20h-4.29c-.204-.423-.356-.94-.458-1.549a12.766 12.766 0 0 1-.14-1.904zm.52-4.938.026 2.286h-1.892c-.398 0-.736.055-1.016.165-.27.11-.49.262-.66.457-.16.186-.28.397-.355.634a2.714 2.714 0 0 0-.102.75c0 .253.06.482.178.685.127.195.296.347.508.457.211.11.448.165.71.165.474 0 .877-.089 1.207-.267.338-.186.596-.41.774-.672.178-.263.267-.508.267-.737l.94 1.752c-.17.339-.365.681-.585 1.028a4.494 4.494 0 0 1-.8.965 3.813 3.813 0 0 1-1.155.711c-.457.178-1.011.267-1.663.267a5.254 5.254 0 0 1-2.336-.52 4.327 4.327 0 0 1-1.689-1.448c-.423-.626-.634-1.346-.634-2.158 0-.711.127-1.346.38-1.904a3.73 3.73 0 0 1 1.181-1.422c.525-.39 1.194-.686 2.006-.889.813-.203 1.769-.305 2.87-.305h1.84zm10.36-2.412V20h-4.279V6.264h4.012l.267 2.932zm-.508 3.466-1.003.025c0-1.049.127-1.984.38-2.805.255-.83.614-1.532 1.08-2.108a4.59 4.59 0 0 1 1.663-1.307c.652-.305 1.375-.457 2.17-.457a5.17 5.17 0 0 1 1.74.28c.533.185.99.486 1.371.9.39.415.686.965.889 1.65.211.678.317 1.516.317 2.514V20h-4.304v-8.658c0-.55-.076-.97-.228-1.257a1.219 1.219 0 0 0-.66-.61c-.288-.11-.64-.164-1.054-.164-.44 0-.813.084-1.117.253-.305.17-.55.407-.736.711a3.374 3.374 0 0 0-.394 1.054c-.076.406-.114.85-.114 1.333zm18.878 4.19V.5h4.303V20h-3.859l-.444-3.148zm-8.43-3.555v-.267c0-1.04.114-1.989.343-2.843.228-.864.567-1.604 1.015-2.222a4.587 4.587 0 0 1 1.676-1.447c.669-.339 1.439-.508 2.31-.508.78 0 1.46.182 2.045.546.584.355 1.083.854 1.498 1.498.414.643.753 1.396 1.015 2.26.263.854.462 1.777.597 2.767v.317a16.749 16.749 0 0 1-.597 2.641c-.262.821-.6 1.549-1.015 2.184a4.81 4.81 0 0 1-1.511 1.498c-.584.355-1.27.533-2.057.533-.872 0-1.642-.174-2.31-.52a4.737 4.737 0 0 1-1.663-1.46c-.44-.627-.775-1.363-1.003-2.21a10.595 10.595 0 0 1-.343-2.767zm4.278-.267v.267c0 .516.034.994.102 1.434.067.44.182.83.343 1.168.169.33.389.589.66.775.279.186.622.28 1.028.28.55 0 1.003-.132 1.358-.394.364-.263.631-.635.8-1.118.178-.482.254-1.05.229-1.7v-1.004a6.051 6.051 0 0 0-.114-1.472c-.094-.432-.242-.792-.445-1.08a1.841 1.841 0 0 0-.749-.647c-.296-.152-.647-.228-1.053-.228-.398 0-.737.093-1.016.279-.271.186-.491.448-.66.787-.17.33-.292.724-.369 1.18-.076.45-.114.94-.114 1.473zm15.4-6.766V20H57.64V6.264h4.29zm-4.545-3.542c0-.61.22-1.109.66-1.498.44-.39 1.011-.584 1.714-.584.702 0 1.273.194 1.714.584.44.389.66.888.66 1.498 0 .609-.22 1.108-.66 1.498-.44.39-1.012.584-1.714.584-.703 0-1.274-.195-1.714-.584-.44-.39-.66-.889-.66-1.498zm11.387 6.474V20h-4.278V6.264h4.012l.266 2.932zm-.507 3.466-1.003.025c0-1.049.127-1.984.38-2.805.254-.83.614-1.532 1.08-2.108a4.59 4.59 0 0 1 1.663-1.307c.651-.305 1.375-.457 2.17-.457a5.17 5.17 0 0 1 1.74.28c.533.185.99.486 1.371.9.39.415.686.965.889 1.65.211.678.317 1.516.317 2.514V20h-4.304v-8.658c0-.55-.076-.97-.228-1.257a1.219 1.219 0 0 0-.66-.61c-.288-.11-.64-.164-1.054-.164-.44 0-.813.084-1.117.253-.305.17-.55.407-.737.711a3.371 3.371 0 0 0-.393 1.054c-.076.406-.114.85-.114 1.333zM87.88 6.264h3.885v13.203c0 1.27-.292 2.344-.876 3.224-.584.89-1.401 1.562-2.45 2.019-1.041.465-2.26.698-3.657.698-.618 0-1.248-.08-1.891-.241a7.223 7.223 0 0 1-1.803-.686 4.907 4.907 0 0 1-1.41-1.13l1.79-2.513c.348.39.784.72 1.308.99.525.28 1.143.42 1.854.42.618 0 1.134-.111 1.549-.331.423-.22.745-.542.965-.965.22-.415.33-.918.33-1.51V9.513l.406-3.25zm-9.128 7.033v-.267c0-1.04.127-1.989.38-2.843.263-.864.636-1.604 1.118-2.222a5.05 5.05 0 0 1 1.777-1.447c.694-.339 1.477-.508 2.349-.508.94 0 1.71.182 2.31.546.61.355 1.097.854 1.46 1.498.373.643.66 1.396.864 2.26.211.854.39 1.777.533 2.767v.317a18.858 18.858 0 0 1-.597 2.641 8.885 8.885 0 0 1-.965 2.184 4.525 4.525 0 0 1-1.498 1.498c-.592.355-1.303.533-2.132.533-.864 0-1.642-.174-2.336-.52a5.217 5.217 0 0 1-1.765-1.46c-.482-.627-.855-1.363-1.117-2.21-.254-.846-.381-1.768-.381-2.767zm4.278-.267v.267c0 .516.047.994.14 1.434.102.44.254.83.457 1.168.203.33.453.589.749.775.305.186.66.28 1.066.28.618 0 1.118-.132 1.498-.394.381-.263.656-.635.826-1.118.169-.482.24-1.05.215-1.7v-1.004a6.047 6.047 0 0 0-.114-1.472c-.093-.432-.241-.792-.444-1.08a1.794 1.794 0 0 0-.787-.647c-.322-.152-.711-.228-1.168-.228a1.98 1.98 0 0 0-1.054.279 2.268 2.268 0 0 0-.762.787c-.203.33-.36.724-.47 1.18-.1.45-.152.94-.152 1.473z" fill="#37447E"/></svg>