<svg width="445" height="313" fill="none" xmlns="http://www.w3.org/2000/svg"><path d="M167 304.935c79.529 0 144-64.471 144-144 0-79.53-64.471-144-144-144s-144 64.47-144 144c0 79.529 64.471 144 144 144z" fill="#F2F2F2"/><path d="M190.108 182.892c-31.707 48.877-23.019 111.043-23.019 111.043s60.095-17.08 91.803-65.957c31.707-48.878 23.019-111.043 23.019-111.043s-60.095 17.08-91.803 65.957z" fill="#3F3D56"/><path d="M166.991 292.935s-.776-.123-2.205-.411a144.21 144.21 0 0 1-4.626-1.011c-17.131-4.02-62.675-17.609-92.452-53.337C30.44 193.438 32.01 130.935 32.01 130.935s56.984 9.215 94.533 49.391a114.133 114.133 0 0 1 4.749 5.368c32.428 38.926 35.451 91.301 35.691 104.248.033 1.941.008 2.993.008 2.993z" fill="#222F65"/><path clip-rule="evenodd" d="M143.892 182.892c31.707 48.877 23.019 111.043 23.019 111.043s-60.095-17.08-91.803-65.957c-31.707-48.878-23.02-111.043-23.02-111.043s60.096 17.08 91.804 65.957z" stroke="#3F3D56" stroke-width="2"/><path opacity=".1" d="M167 290.991a180.433 180.433 0 0 1-2.19 2.591c-1.351 1.544-2.117 2.353-2.117 2.353s-.93-1.172-2.494-3.368c-8.589-12.001-36.215-54.673-34.082-103.964.115-2.584.305-5.14.568-7.668a114.462 114.462 0 0 1 4.735 5.39c32.327 39.081 35.341 91.666 35.58 104.666z" fill="#000"/><path d="M214.883 192.216c-2.528 58.266-45.961 103.719-45.961 103.719s-39.334-49.015-36.805-107.281c2.528-58.266 45.961-103.72 45.961-103.72s39.334 49.016 36.805 107.282z" fill="#222F65"/><path d="m169 293.935 9-207" stroke="#3F3D56" stroke-width="2"/><path d="M222.5 312.935c122.883 0 222.5-6.268 222.5-14s-99.617-14-222.5-14S0 291.203 0 298.935s99.617 14 222.5 14zM37 293.935v-56 56z" fill="#3F3D56"/><path d="M37 293.935v-56" stroke="#3F3D56" stroke-width="2"/><path d="M37 245.935a8 8 0 1 0 0-16 8 8 0 0 0 0 16zM37 272.935s-1.116-24.632-24-21.769l24 21.769zM228 202.935v-156 156z" fill="#3F3D56"/><path d="M228 202.935v-156" stroke="#3F3D56" stroke-width="2"/><path d="M228 58.935c6.075 0 11-4.925 11-11s-4.925-11-11-11-11 4.925-11 11 4.925 11 11 11zM228 91.935s-1.535-33.589-33-29.684l33 29.684z" fill="#3F3D56"/><path d="m358.286 116.935-9.377 17.635s-67.801 12.956-59.146 33.11c8.656 20.154 18.393 49.665 23.442 48.945 5.049-.719 32.819-16.555 33.901-21.233 1.082-4.679-24.885-26.632-24.885-26.632l42.917-8.278s6.131 28.792-1.803 48.586c-7.934 19.794-12.623 73.418-7.213 74.138 5.409.72 19.114 5.038 25.245 1.08 6.131-3.959 9.016-90.694 9.016-90.694s12.983-56.863 5.049-63.341c-7.934-6.478-37.146-13.316-37.146-13.316z" fill="#2F2E41"/><path d="M372.942 275.192s-8.378-4.424-10.142-.885c0 0 1.323 10.618-3.969 11.945s-7.497 10.617 0 11.502c7.496.885 12.347-1.769 14.993-1.769 2.646 0 0-9.291 0-9.291l-.882-11.502zM332.965 202.77s-9.129-2.561-10.11 1.285c0 0 3.528 10.134-1.37 12.559-4.899 2.425-5.101 12.005 2.42 11.282 7.521-.724 11.709-4.357 14.298-4.919 2.588-.561-1.955-9.112-1.955-9.112l-3.283-11.095z" fill="#2F2E41"/><path d="M378.395 54.794s.357 13.43-2.137 14.518c-2.493 1.09 13.892 7.623 13.892 7.623l2.85-5.082s-3.206-18.148-2.493-19.6c.712-1.452-12.112 2.54-12.112 2.54z" fill="#9F616A"/><path d="M384 57.935c12.15 0 22-9.85 22-22s-9.85-22-22-22-22 9.85-22 22 9.85 22 22 22z" fill="#2F2E41"/><path d="M386 23.935a9 9 0 0 0 9-9 9 9 0 0 0-9-9 9 9 0 0 0-9 9 9 9 0 0 0 9 9z" fill="#2F2E41"/><path d="M373.887 9.935c0-4.608 3.502-8.471 8.113-8.952a9.202 9.202 0 0 0-.943-.048c-5.002 0-9.057 4.03-9.057 9s4.055 9 9.057 9c.315 0 .63-.016.943-.049-4.611-.48-8.113-4.344-8.113-8.951z" fill="#2F2E41"/><path d="M383 61.935c8.284 0 15-6.716 15-15 0-8.285-6.716-15-15-15-8.284 0-15 6.716-15 15 0 8.284 6.716 15 15 15z" fill="#9F616A"/><path d="M394.251 66.744s-12.954 3.94-19.431 0-21.95 7.523-24.469 12.538c-2.519 5.015 9.355 10.03 9.355 10.03s-3.39 9.684-2.698 14.507c.719 5.015-.54 15.224-.54 15.224s31.79 20.85 38.862 11.463c1.08-1.433 10.076-35.105 10.076-35.105L418 82.864s-7.916-11.463-12.594-12.538c-4.678-1.074-11.155-3.582-11.155-3.582z" fill="#D0CDE1"/><path d="M306.937 139.935s-24.253 12.838-19.26 16.506c4.994 3.668 25.323-14.305 25.323-14.305l-6.063-2.201zM402.922 130.873s-10.995-7.716-12.766-3.858c-1.77 3.858 12.039 12.547 14.947 9.147 2.907-3.4-2.181-5.289-2.181-5.289z" fill="#9F616A"/><path d="m411.768 77.935 6.413 3.988s21.733 30.456 14.252 37.345c-7.482 6.889-26.721 20.667-26.721 20.667s-6.413-9.427-4.276-9.79c2.138-.362 19.239-14.865 19.239-14.865L405.712 87l6.056-9.065zM354.179 76.935l-4.666 1.81-12.205 22.089L305 140.303s4.308 6.88 7.897 5.431c3.59-1.448 30.513-31.865 30.513-31.865L361 86.349l-6.821-9.414z" fill="#D0CDE1"/><path d="M384.5 37.935c8.56 0 15.5-4.03 15.5-9s-6.94-9-15.5-9c-8.56 0-15.5 4.03-15.5 9s6.94 9 15.5 9z" fill="#2F2E41"/><path fill="#222F65" d="M282 223.935h71v71h-71z"/><path fill-rule="evenodd" clip-rule="evenodd" d="M330.867 273.344c7.434 0 12.133-6.323 12.133-16.354 0-13.646-10.454-23.055-25.54-23.055-15.694 0-26.46 10.586-26.46 26.006 0 15.799 10.549 25.979 27.029 25.993a37.894 37.894 0 0 0 8.491-.921 2.141 2.141 0 0 0-.908-4.183 41.143 41.143 0 0 1-7.366.623c-13.555 0-22.263-8.312-22.263-21.336 0-12.739 8.802-21.742 21.152-21.742 12.486 0 20.936 7.541 20.936 18.818 0 7.067-2.383 11.615-6.135 11.615-2.166 0-3.371-1.313-3.371-3.492v-17.505h-5.404v3.764h-.541c-1.246-2.749-4.076-4.427-7.407-4.427-6.487 0-10.929 5.266-10.929 12.834 0 7.879 4.415 13.172 11.023 13.172 3.711 0 6.473-1.719 7.814-4.86h.541c.502 3.019 3.399 5.05 7.205 5.05zm-14.558-5.199c-3.832 0-6.188-3.032-6.188-8.041 0-5.023 2.315-7.974 6.256-7.974 3.968 0 6.514 3.046 6.514 7.974 0 4.927-2.546 8.041-6.582 8.041z" fill="#fff"/></svg>