<svg width="480" height="317" fill="none" xmlns="http://www.w3.org/2000/svg"><path d="M99.08 137.824c-24.3.111-44.08.468-44.08.468s23.511-30.906 43.992-19.456C119.473 130.287 143 137.889 143 137.889s-19.619-.176-43.92-.065z" fill="#F2F2F2"/><path d="M371 147.292a5 5 0 1 0-.001-10.001 5 5 0 0 0 .001 10.001z" fill="#FF6584"/><path d="m333.99 221.606 37.987-43.621 1.172 1.021-37.987 43.621-1.172-1.021z" fill="#3F3D56"/><path d="M373 186.292a8 8 0 1 0 0-16 8 8 0 0 0 0 16zM349.286 205.292s15.36-19.573-4.286-33l4.286 33zM94.578 239.696c28.148 52.191 87.889 74.596 87.889 74.596s14.103-62.214-14.045-114.405-87.889-74.595-87.889-74.595-14.103 62.213 14.045 114.404z" fill="#3F3D56"/><path d="M113.621 222.752C164.431 253.408 184 314.3 184 314.3s-62.811 11.188-113.621-19.468C19.569 264.175 0 203.284 0 203.284s62.811-11.189 113.621 19.468z" fill="#111B47"/><path d="M315.194 223.022C264.108 253.259 244 314.042 244 314.042s62.719 11.757 113.806-18.48c51.086-30.238 71.194-91.02 71.194-91.02s-62.719-11.758-113.806 18.48z" fill="#3F3D56"/><path d="M333.739 241.512c-28.605 51.915-88.532 73.78-88.532 73.78s-13.55-62.306 15.054-114.221c28.605-51.915 88.532-73.779 88.532-73.779s13.55 62.306-15.054 114.22z" fill="#111B47"/><path d="M229.881 99.332c-6.015-5.443-6.857-14.59-1.937-21.04-.314.294-.621.6-.915.925-5.779 6.394-5.282 16.263 1.109 22.044 6.39 5.781 16.255 5.284 22.033-1.109.294-.326.568-.662.829-1.004-5.921 5.545-15.102 5.625-21.119.184z" fill="#2F2E41"/><path d="M215.5 110.292c17.949 0 32.5-14.551 32.5-32.5 0-17.95-14.551-32.5-32.5-32.5-17.949 0-32.5 14.55-32.5 32.5 0 17.949 14.551 32.5 32.5 32.5z" fill="#2F2E41"/><path d="m206.238 119.323.974-2.506-17.736 14.84-21.438 11.949s-10.915-41.629-11.694-42.399c-.78-.771-14.812-30.066-21.049-16.19-6.237 13.877 12.083 21.971 12.083 21.971s.585 50.687 19.295 50.302c18.711-.386 41.903-17.153 42.293-18.695.39-1.542-2.728-19.272-2.728-19.272zM211.5 111.292c10.77 0 19.5-8.731 19.5-19.5 0-10.77-8.73-19.5-19.5-19.5s-19.5 8.73-19.5 19.5c0 10.769 8.73 19.5 19.5 19.5z" fill="#FFB8B8"/><path d="M214.879 106.042s5.064 6.568 3.506 7.341c-1.558.772-10.517 1.159-15.971 7.727-5.453 6.568 6.622 23.182 6.622 23.182L255 113.769l-18.697-6.182s-12.854-6.954-12.465-14.295l-8.959 12.75z" fill="#FFB8B8"/><path d="M277 316.292h-51.63c-2.925-21.338-4.277-40.892-4.277-40.892s-.754 19.669-2.762 40.892H152c9.403-62.841 53.978-130.985 53.978-130.985s.388-9.282 1.551-10.83c1.164-1.543-6.588-1.93-10.078-13.53-2.128-7.081-.215-11.715 1.604-14.246a10.236 10.236 0 0 1 2.274-2.384s.776-8.117 0-9.278c-.099-.152.666-.685 2.081-1.496 1.179-.68 2.809-1.553 4.759-2.557 11.169-5.779 32.788-16.003 40.194-19.486 1.624-.769 2.568-1.208 2.568-1.208l13.176 4.639c10.461 3.477 10.461 25.521 10.461 25.521l-.592.899-15.812 23.9-9.172 13.87c2.327 1.542-2.322 11.212-2.322 11.212s6.625 9.497 12.012 23.994a108.896 108.896 0 0 1 6.19 25.025 85.348 85.348 0 0 1 .398 16.714c-1.436 18.628 4.948 41.268 11.73 60.226z" fill="#2F2E41"/><path d="M263.951 116.726a3.313 3.313 0 0 0-2.812-.22 3.364 3.364 0 0 0-1.978 2.032c-1.154 3.208-2.323 9.896-1.906 23.801a5971.358 5971.358 0 0 1 1.149 43.009v38.747s-16.853 37.197-7.66 37.197c9.192 0 15.703-29.448 15.703-29.448s8.427-44.558 5.745-52.308c0 0 7.56-53.535-8.241-62.81z" fill="#FFB8B8"/><path d="M209.5 86.292c9.113 0 16.5-5.149 16.5-11.5 0-6.352-7.387-11.5-16.5-11.5S193 68.44 193 74.792c0 6.351 7.387 11.5 16.5 11.5zM236 65.292c8.837 0 16-7.164 16-16 0-8.837-7.163-16-16-16s-16 7.163-16 16c0 8.836 7.163 16 16 16z" fill="#2F2E41"/><path d="M247 60.676c-8.318 0-15.248-6.254-15.94-14.384-.037.431-.06.867-.06 1.307 0 8.667 7.163 15.693 16 15.693s16-7.026 16-15.693c0-.44-.023-.876-.06-1.307-.692 8.13-7.622 14.383-15.94 14.384z" fill="#2F2E41"/><path d="M230.389 88.31c.729-.174.997-1.665.599-3.33-.397-1.665-1.31-2.874-2.039-2.7-.729.174-.997 1.665-.599 3.33s1.311 2.874 2.039 2.7z" fill="#FFB8B8"/><path d="M230 88.292a1 1 0 1 0 0-2 1 1 0 0 0 0 2z" fill="#F2F2F2"/><path fill-rule="evenodd" clip-rule="evenodd" d="M40 147.792a6.5 6.5 0 0 0 6.5 6.5 6.507 6.507 0 0 0 6.5-6.5 6.5 6.5 0 1 0-13 0zm1.083 0a5.417 5.417 0 0 1 5.417-5.417 5.424 5.424 0 0 1 5.417 5.417 5.417 5.417 0 0 1-10.834 0zM304 108.292h14v-14h-14v14zm12.923-1.077h-11.846V95.369h11.846v11.846z" fill="#3F3D56"/><path d="M436.08 180.824c-24.3.111-44.08.468-44.08.468s23.511-30.906 43.992-19.456C456.473 173.287 480 180.889 480 180.889s-19.619-.176-43.92-.065zM361.08 75.824c-24.3.112-44.08.468-44.08.468s23.511-30.906 43.992-19.456C381.473 68.286 405 75.89 405 75.89s-19.619-.176-43.92-.065zM131.358 89.425 75.236 60.453c-3.832-1.979-5.341-6.701-3.37-10.549l13.22-25.813a3.094 3.094 0 0 1 1.885-1.56l44.234-12.949c3.672-1.075 7.541.922 8.806 4.546l14.534 41.621a8.14 8.14 0 0 1-.439 6.393L141.865 86.04a7.81 7.81 0 0 1-4.555 3.877 7.776 7.776 0 0 1-5.952-.492z" fill="#F2F2F2"/><path opacity=".1" d="M133.347 79.868 76.805 55.627c-1.821-.941-.113.505.824-1.325l7.107-29.01L154 61.059l-17.511 21.744c-.936 1.83-1.32-1.995-3.142-2.935z" fill="#000"/><path d="M86.156 62.932A8.186 8.186 0 0 1 82.62 51.91l19.04-37.027a8.185 8.185 0 0 1 11.023-3.536l37.027 19.04a8.186 8.186 0 0 1 3.536 11.023l-19.039 37.027a8.187 8.187 0 0 1-11.024 3.536l-37.027-19.04z" fill="#111B47"/><path opacity=".1" d="m145 56.877-14.542 28.415L79 58.706l14.542-28.414 19.335 25.787 32.123.798z" fill="#000"/><path d="M112.252 57.949 87.288 24.894a1.517 1.517 0 0 0-2.559.218L70.524 52.668a4.71 4.71 0 0 0-.298 3.6 4.724 4.724 0 0 0 2.342 2.756L134.46 90.77a4.744 4.744 0 0 0 3.61.297 4.73 4.73 0 0 0 2.763-2.336l13.962-27.084a1.84 1.84 0 0 0-.054-1.785 1.85 1.85 0 0 0-1.545-.902l-40.944-1.01zM107.412 14.624l14.427 7.418-1.049 2.04-14.427-7.418 1.049-2.04zM102.425 21.456l42.843 22.03-.599 1.167-42.843-22.03.599-1.167zM100.402 25.391l42.843 22.03-.6 1.166-42.843-22.03.6-1.166z" fill="#F2F2F2"/><path d="m98.379 29.326 42.843 22.03-.6 1.166-42.843-22.03.6-1.166z" fill="#F2F2F2"/><path d="M113.073 12.573c1.7-3.305.403-7.36-2.897-9.057-3.299-1.697-7.352-.393-9.052 2.913-1.7 3.306-.403 7.361 2.897 9.058 3.299 1.697 7.352.392 9.052-2.914z" fill="#fff"/><path fill-rule="evenodd" clip-rule="evenodd" d="M99.887 5.634a8.005 8.005 0 0 1 10.777-3.455 8.02 8.02 0 0 1 3.457 10.77 8.004 8.004 0 0 1-10.776 3.456 7.996 7.996 0 0 1-3.458-10.77zm1.933 1.18 1.772 5.52 9.949-3.185-.497-1.548-8.398 2.692-1.277-3.976-1.549.496z" fill="#57B894"/></svg>