<svg width="540" height="525" fill="none" xmlns="http://www.w3.org/2000/svg"><path d="M125.187 397.963 167 331.841l-93.641-59.878L25 348.436l77.453 49.527h22.734z" fill="#F0F0F0"/><path fill-rule="evenodd" clip-rule="evenodd" d="M80 416.963h103v-20H80v20zm101.662-1.29H81.338v-17.42h100.324v17.42z" fill="#3F3D56"/><path d="M171.5 413.963a6.5 6.5 0 1 0 0-13 6.5 6.5 0 0 0 0 13zM151.5 413.963a6.5 6.5 0 1 0 0-13 6.5 6.5 0 0 0 0 13zM133.5 413.963a6.5 6.5 0 1 0 0-13 6.5 6.5 0 0 0 0 13zM114.5 413.963a6.5 6.5 0 1 0 0-13 6.5 6.5 0 0 0 0 13zM95.5 413.963a6.5 6.5 0 1 0 0-13 6.5 6.5 0 0 0 0 13z" fill="#222F65"/><path d="M307.462 185.904v-51.075H333v-24.866H208v125h106.855v-12.222a17.35 17.35 0 0 1 17.348-17.348H333v-19.489h-25.538zM47.65 10.568 87.432.649l9.919 39.782-39.782 9.919z" fill="#F0F0F0"/><path fill="#222F65" d="M362 432.963h84v17h-84z"/><path fill="#F0F0F0" d="M340 346.963h123v16H340z"/><path fill="#3F3D56" d="M0 523.963h524v1H0z"/><path fill-rule="evenodd" clip-rule="evenodd" d="M331.035 524.963h152.93c9.956-.011 18.024-8.076 18.035-18.027V222.989c-.011-9.951-8.079-18.015-18.035-18.026h-152.93c-9.956.011-18.024 8.075-18.035 18.026v283.947c.011 9.951 8.079 18.016 18.035 18.027zm-16.69-301.974c.011-9.208 7.477-16.671 16.69-16.682h152.93c9.213.011 16.679 7.474 16.69 16.682v283.947c-.011 9.209-7.477 16.672-16.69 16.682h-152.93c-9.213-.01-16.679-7.473-16.69-16.682V222.989z" fill="#3F3D56"/><path fill-rule="evenodd" clip-rule="evenodd" d="M386 214.963a4 4 0 1 0 8 0 4 4 0 0 0-8 0zm1.333 0a2.667 2.667 0 1 1 5.334 0 2.667 2.667 0 0 1-5.334 0z" fill="#3F3D56"/><path fill="#3F3D56" d="M400 213.963h30v1h-30z"/><path d="M491 223.963v54c-29.823-.001-53.999-24.177-54-54h54z" fill="#222F65"/><path fill-rule="evenodd" clip-rule="evenodd" d="M325 506.963h166v-283H325v283zm164.656-1.344H326.344V225.307h163.312v280.312z" fill="#3F3D56"/><path opacity=".1" d="M451.5 274.963c10.217 0 18.5-8.283 18.5-18.5s-8.283-18.5-18.5-18.5-18.5 8.283-18.5 18.5 8.283 18.5 18.5 18.5z" fill="#000"/><path d="M448.5 276.963c10.217 0 18.5-8.283 18.5-18.5s-8.283-18.5-18.5-18.5-18.5 8.283-18.5 18.5 8.283 18.5 18.5 18.5z" fill="#222F65"/><path fill="#3F3D56" d="M332 234.963h26v9h-26zM346 324.963h26v9h-26z"/><path fill-rule="evenodd" clip-rule="evenodd" d="M347 359.963h124v-17H347v17zm122.652-1.308H348.348v-14.384h121.304v14.384z" fill="#3F3D56"/><path fill="#F0F0F0" d="M340 397.963h123v16H340z"/><path fill="#3F3D56" d="M346 374.963h26v9h-26z"/><path fill-rule="evenodd" clip-rule="evenodd" d="M347 410.963h124v-17H347v17zm122.652-1.308H348.348v-14.384h121.304v14.384zM366 445.963h85v-18h-85v18zm83.651-1.286h-82.302v-15.428h82.302v15.428z" fill="#3F3D56"/><path d="M466 353.463a6.5 6.5 0 0 1-11.509 4.14l-.007-.006a6.5 6.5 0 0 1 5.884-10.575 6.499 6.499 0 0 1 5.445 4.905l.005.002c.12.502.181 1.017.182 1.534z" fill="#222F65"/><path opacity=".1" d="M466 353.088c0 2.9-1.765 5.487-4.411 6.469-2.646.981-5.604.145-7.396-2.09l-.006-.007a7.253 7.253 0 0 1-.187-1.622c0-2.9 1.765-5.488 4.411-6.469 2.646-.981 5.604-.145 7.396 2.09 0 .002 0 .003.002.005a.008.008 0 0 0 .004.002c.123.531.186 1.076.187 1.622z" fill="#000"/><path d="M462.5 362.963a6.5 6.5 0 1 0 0-13 6.5 6.5 0 0 0 0 13zM466 403.463a6.5 6.5 0 0 1-11.509 4.14l-.007-.006a6.5 6.5 0 0 1 5.884-10.575 6.499 6.499 0 0 1 5.445 4.905l.005.002c.12.502.181 1.017.182 1.534z" fill="#222F65"/><path opacity=".1" d="M466 404.088c0 2.9-1.765 5.487-4.411 6.469-2.646.981-5.604.145-7.396-2.09l-.006-.007a7.253 7.253 0 0 1-.187-1.622c0-2.9 1.765-5.488 4.411-6.469 2.646-.981 5.604-.145 7.396 2.09 0 .002 0 .003.002.005a.008.008 0 0 0 .004.002c.123.531.186 1.076.187 1.622z" fill="#000"/><path d="M462.5 413.963a6.5 6.5 0 1 0 0-13 6.5 6.5 0 0 0 0 13z" fill="#222F65"/><path fill="#F0F0F0" d="M315 141.963h35v35h-35z"/><path fill-rule="evenodd" clip-rule="evenodd" d="M443 158.963a8 8 0 0 0 8 8 8.01 8.01 0 0 0 8-8 8 8 0 0 0-16 0zm1.333 0a6.667 6.667 0 0 1 6.667-6.667 6.675 6.675 0 0 1 6.667 6.667 6.667 6.667 0 0 1-13.334 0zM257 279.963h17v-17h-17v17zm15.692-1.308h-14.384v-14.384h14.384v14.384zM523 410.963h17v-17h-17v17zm15.692-1.308h-14.384v-14.384h14.384v14.384z" fill="#3F3D56"/><path d="m195 293.867 2.998 1.626 10.2 5.536 16.467 8.934 9.597-17.929a14.656 14.656 0 0 0 1.13-11.101 14.543 14.543 0 0 0-7.005-8.647 19.108 19.108 0 0 0-22.427 3.064l-.005.006a19.34 19.34 0 0 0-3.612 4.786L195 293.867z" fill="#2F2E41"/><path d="m240 474.043-1.931 22.88-7.242 1.04-4.827-26 14 2.08z" fill="#FFB8B8"/><path d="M228.352 498.581s9.575-5.132 11.591-1.026c0 0-1.512 12.316 4.536 13.856 6.048 1.539 8.568 12.316 0 13.342-8.567 1.027-14.111-2.052-17.135-2.052-3.024 0 0-10.777 0-10.777l1.008-13.343z" fill="#2F2E41"/><path d="m179 474.043 1.931 22.88 7.242 1.04 4.827-26-14 2.08z" fill="#FFB8B8"/><path d="M191.648 498.581s-9.575-5.132-11.591-1.026c0 0 1.512 12.316-4.536 13.856-6.048 1.539-8.568 12.316 0 13.342 8.567 1.027 14.111-2.052 17.135-2.052 3.024 0 0-10.777 0-10.777l-1.008-13.343z" fill="#2F2E41"/><path d="M219.5 297.963c7.456 0 13.5-6.044 13.5-13.5s-6.044-13.5-13.5-13.5-13.5 6.044-13.5 13.5 6.044 13.5 13.5 13.5z" fill="#FFB8B8"/><path d="m179 309.763 10.495 16.694 12.493-1.012 20.489 1.518s1.934-3.916 3.514-7.725a30.177 30.177 0 0 0 1.983-5.934c.5-3.541-6.496-7.082-6.496-7.082s-.275-.051-.735-.162a28.648 28.648 0 0 1-2.578-.744c-2.324-.799-5.118-2.155-5.682-4.153-1-3.541 6.496-8.6 6.496-8.6l-8.995-8.6s-7.991 11.236-17.696 13.795c-.563.151-1.133.269-1.709.354l-.085.016C179.999 299.645 179 309.763 179 309.763z" fill="#FFB8B8"/><path d="m184.264 305.963-5.787 4.538s-4.736 21.683-3.158 27.734c1.579 6.051-.526 11.598-.526 12.606 0 1.009-4.735 38.827-4.735 38.827s-9.471 20.17.526 18.153c9.997-2.017 6.314-22.187 6.314-22.187L189 350.337v-29.751l-4.736-14.623zM224.046 309.963l4.091 3 2.046 41.995 15.342 35.997s11.251 17.498 4.091 17.998c-7.16.5-11.762-17.998-11.762-17.998l-13.808-34.497L222 322.962l2.046-12.999z" fill="#FFB8B8"/><path d="M198.734 311.963s10.087 7.078 26.226 4.55c0 0 4.539 9.1 2.018 14.155-2.522 5.056 3.026 17.189 4.034 18.705 1.009 1.517 12.609 32.861 16.644 66.732 4.034 33.872 15.13 57.127 5.547 60.16-9.582 3.033-29.252 6.572-31.269 3.539-2.017-3.033-5.043-78.36-5.043-78.36l-5.548 28.817s7.565 49.037 2.017 50.049c-5.548 1.011-40.347-2.023-39.339-8.089 1.009-6.067 11.096-37.916 11.096-37.916s-.504-63.699 9.583-75.832c0 0 4.034-6.572-1.513-15.166-5.548-8.595-5.044-22.244-5.044-22.244s4.035 0 10.591-9.1z" fill="#2F2E41"/><path d="m190 298.315 8.08 18.648 1.92-1.007-8.358-17.993-1.642.352zM218 305.963l6.452 14 1.548-.136-.526-2.383-4.838-10.74a29.912 29.912 0 0 1-2.636-.741zM197.377 294.986c.989 3.266 3.79 5.605 7.107 5.937 3.318.331 6.505-1.41 8.09-4.419-6.366-8.54-.906-13.905 9.436-17.963 1.593-3.034 1.241-6.755-.891-9.418-5.773-.758-11.571 1.201-15.776 5.329l-.005.005-7.347 13.982a8.65 8.65 0 0 0-.614 6.547z" fill="#2F2E41"/><path d="M212.5 288.963c.828 0 1.5-1.343 1.5-3s-.672-3-1.5-3-1.5 1.343-1.5 3 .672 3 1.5 3z" fill="#FFB8B8"/><path d="m218 281.084 15.212 6.879 2.788-6.141a14.533 14.533 0 0 0-2.935-6.127l-10.47-4.732L218 281.084z" fill="#2F2E41"/><path d="M254.5 415.963a6.5 6.5 0 1 0 0-13 6.5 6.5 0 0 0 0 13z" fill="#222F65"/><path d="M38.5 455.963a4.5 4.5 0 1 0 0-9 4.5 4.5 0 0 0 0 9z" fill="#FF6584"/><path fill="#3F3D56" d="M59 474.963h1v50h-1z"/><path d="M60 480.963a7 7 0 1 0 0-14 7 7 0 0 0 0 14zM59 504.963s-.977-21.273-21-18.8l21 18.8z" fill="#3F3D56"/></svg>