<svg width="540" height="389" fill="none" xmlns="http://www.w3.org/2000/svg"><path d="M540 233.484c0 67.655-40.294 91.277-90 91.277s-90-23.622-90-91.277 90-153.723 90-153.723 90 86.068 90 153.723z" fill="#F2F2F2"/><path d="m446.955 314.639.916-56.676L486 187.848l-37.985 61.225.412-25.484 26.278-50.728-26.17 43.984.741-45.834 28.14-40.386-28.024 33.179.463-84.043-2.908 111.258.239-4.59-28.61-44.018 28.151 52.829-2.666 51.188-.079-1.359L411 198.747l32.882 51.122-.333 6.401-.06.097.027.525-6.763 129.869h9.036l1.084-67.079 32.802-50.998-32.72 45.955z" fill="#3F3D56"/><path d="M49 346.172c0 18.226-10.969 24.589-24.5 24.589S0 364.398 0 346.172c0-18.225 24.5-41.411 24.5-41.411S49 327.947 49 346.172z" fill="#F2F2F2"/><path d="m23.588 367.263.244-15.323L34 332.983l-10.13 16.553.11-6.89 7.008-13.715-6.979 11.892.198-12.392 7.504-10.918-7.473 8.97.124-22.722-.776 30.079.063-1.24-7.629-11.901 7.507 14.283-.71 13.839-.022-.367L14 335.93l8.768 13.821-.088 1.731-.016.026.007.142-1.804 35.111h2.41l.289-18.135 8.748-13.788-8.726 12.425z" fill="#3F3D56"/><path d="M3 387.261h489" stroke="#3F3D56" stroke-width="2"/><path d="M493 370.996c0 12.427-7.387 16.765-16.5 16.765a26.575 26.575 0 0 1-1.886-.064c-8.224-.582-14.614-5.144-14.614-16.701 0-11.96 15.284-27.051 16.432-28.168l.002-.002.066-.065S493 358.57 493 370.996z" fill="#111B47"/><path d="m475.712 385.867 6.107-8.434-6.123 9.36-.016.968c-.427-.009-.85-.029-1.269-.057l.659-12.434-.005-.097.011-.018.062-1.174-6.138-9.383 6.157 8.502.014.249.498-9.395-5.255-9.695 5.319 8.046.518-19.477.002-.067v.065l-.087 15.359 5.232-6.089-5.253 7.412-.138 8.412 4.884-8.073-4.905 9.311-.077 4.676L483 362.598l-7.117 12.868-.171 10.401z" fill="#3F3D56"/><rect x="313" y="88.761" width="6" height="47" rx="2.292" fill="#3F3D56"/><rect x="124" y="51.761" width="3" height="15" rx="1.5" fill="#3F3D56"/><rect x="124" y="79.761" width="4" height="27" rx="1.695" fill="#3F3D56"/><rect x="124" y="116.761" width="3" height="27" rx="1.5" fill="#3F3D56"/><rect x="126" y=".761" width="190" height="386" rx="35.694" fill="#3F3D56"/><rect x="202" y="12.761" width="27" height="5" rx="2.5" fill="#E6E8EC"/><path d="M236 17.762a3 3 0 1 0 0-6 3 3 0 0 0 0 6z" fill="#E6E8EC"/><path d="M305 25.851v335.826c-.002 8.333-6.777 15.086-15.133 15.084H153.133c-8.356.002-15.131-6.751-15.133-15.084V25.851c0-4.002 1.594-7.84 4.432-10.67a15.152 15.152 0 0 1 10.701-4.42h20.461v2.62c.002 6.862 5.58 12.424 12.461 12.426h69.537c6.882 0 12.461-5.563 12.461-12.425v-2.62h21.814c4.014 0 7.863 1.589 10.701 4.419A15.068 15.068 0 0 1 305 25.85z" fill="#fff"/><path fill="#F2F2F2" d="M138 88.761h167v192H138z"/><path d="m150 306.761-.87-.779c-3.09-2.817-5.129-4.646-5.129-6.923a3.228 3.228 0 0 1 .948-2.342 3.273 3.273 0 0 1 2.351-.955 3.557 3.557 0 0 1 2.7 1.259 3.557 3.557 0 0 1 2.7-1.259c.881-.01 1.73.334 2.351.955.622.622.964 1.466.948 2.342 0 2.277-2.039 4.106-5.129 6.923l-.87.779z" fill="#FF6584"/><path d="m181 304.299 1.734.462c.629-1.701 2.116-3.005 3.975-3.484 1.859-.479 3.852-.072 5.327 1.088l-2.649 2.396H196v-6l-2.665 2.385c-1.935-1.584-4.594-2.156-7.077-1.521-2.482.635-4.458 2.39-5.258 4.674z" fill="#F2F2F2"/><path d="M148.5 74.761a7.5 7.5 0 1 0 0-15 7.5 7.5 0 0 0 0 15zM162 62.761h72v9h-72z" fill="#111B47"/><path fill="#F2F2F2" d="M143 319.761h72v9h-72zM144 338.761h151v9H144zM174 306.761l-1.844-3.286c.912-2.23.073-4.803-1.967-6.035a4.703 4.703 0 0 0-6.143 1.138 4.916 4.916 0 0 0 .246 6.353 4.697 4.697 0 0 0 6.211.643l3.497 1.187z"/><path d="M206.555 133.212a21.946 21.946 0 0 0-13.921 9.51 22.364 22.364 0 0 0-3.188 16.669l4.531 22.37 5.074-1.048.358-2.371 1.063 2.077 30.846-6.377.358-2.371 1.063 2.077 4.261-.881-4.532-22.371a22.19 22.19 0 0 0-9.413-14.064 21.773 21.773 0 0 0-16.5-3.22z" fill="#2F2E41"/><path d="M245.647 201.761 272 217.948l-3.294 7.813L244 214.041l1.647-12.28z" fill="#9F616A"/><path d="M211.906 220.4s-53.514 0-62.341 13.761c-8.827 13.761-1.655 33.026 25.93 37.43 27.584 4.403 111.442 6.605 118.062-9.908 6.621-16.513 1.656-25.871 1.656-25.871s-28.689-19.816-83.307-15.412z" fill="#111B47"/><path d="M258.606 233.747 288 244.761s12.202-8.811 6.101-18.724c-6.101-9.914-33.832-67.19-33.832-67.19s-7.764-11.015 2.219-17.073 13.865 3.855 13.865 3.855-.554 2.203 3.328.551c3.882-1.652 11.093 3.855 7.21 12.667-3.882 8.812-6.655 11.015 1.664 10.464 3.004-.199 5.647-2.337 7.797-4.988 4.122-5.08 2.282-9.172 1.97-15.689-.534-11.163-1.408-18.441-4.221-22.831-3.882-6.058-9.428-11.015-23.848-8.261-14.42 2.753-35.496 16.522-30.504 36.348 4.991 19.827 16.084 41.856 16.084 41.856s7.764 30.841 2.773 38.001z" fill="#111B47"/><path opacity=".1" d="M259 233.538c-4.762 1.314-10.743 1.954-17.18 2.153-11.233.348-23.877-.646-33.975-1.772-10.908-1.22-18.845-2.589-18.845-2.589 3.687-3.445 9.354-4.808 16.012-5.305 8.268-.619 18.068.088 27.531-.216a47.513 47.513 0 0 1 10.412.784c10.44 1.993 16.045 6.945 16.045 6.945z" fill="#000"/><path d="M211.5 173.761c8.56 0 15.5-6.939 15.5-15.5 0-8.56-6.94-15.5-15.5-15.5-8.56 0-15.5 6.94-15.5 15.5 0 8.561 6.94 15.5 15.5 15.5z" fill="#9F616A"/><path d="M209.253 170.873s2.722 10.555 0 11.111c-2.721.555-9.253 3.333-9.253 3.333l8.165 3.333 15.24 14.445 13.063 6.666 6.532-2.222v-12.222l-9.797-15.556s-6.532 2.223-8.165-5c-1.633-7.222-4.899-10-4.899-10l-10.886 6.112z" fill="#9F616A"/><path d="M205.355 185.761h-6.616s-11.58 3.837-18.196 12.607c-6.617 8.769-17.093 17.539-17.093 17.539s-7.168 9.866-3.309 23.568c3.86 13.702 9.374 23.568 14.336 20.828 4.963-2.741-7.168-22.472-7.168-22.472l3.309-12.058s17.093-19.732 24.261-19.184c7.168.548 7.719 6.577 7.719 6.577l15.439 4.385L223 207.137l-2.757-10.962-14.888-10.414z" fill="#9F616A"/><path d="M244.775 220.999a20.185 20.185 0 0 0-2.253 5.691 44.172 44.172 0 0 0-1.129 9.002c-11.173.344-23.748-.639-33.792-1.754a343.738 343.738 0 0 1-2.817-7.81c-2.572-7.396-4.962-14.944-4.962-16.053 0-2.185 11.513 1.639 14.254 1.093 2.741-.547 3.837-9.286 0-13.655C210.238 193.143 199 185.77 199 185.77l3.837-1.093s8.498 6.281 26.04 16.659c17.543 10.378 10.416-6.008 10.416-6.008l-10.142-15.567h4.386s8.497 14.475 12.883 21.029c4.386 6.554 2.741 13.109-1.645 20.209z" fill="#3F3D56"/><path d="m194.366 143.663 27.916-5.713 3.506 17.13-27.916 5.713-3.506-17.13z" fill="#2F2E41"/><path d="M282.5 140.761a8.5 8.5 0 1 0 0-17 8.5 8.5 0 0 0 0 17z" fill="#3F3D56"/><path d="M282.5 136.761a4.5 4.5 0 1 0 0-9 4.5 4.5 0 0 0 0 9z" fill="#fff"/><path d="m39.467 226.761-.573 4.328c-.195 1.465-.389 2.931-.493 4.405-.348 4.903.3 9.825.13 14.737-.132 3.781-.748 7.56-.45 11.332.263 3.337 1.235 6.576 2.201 9.787l1.381 4.589a.891.891 0 0 0 .418.68c.24.151.538.184.806.089l6.113-.541c-.392-1.754-.827-3.582-1.037-5.365-.167-1.411-.267-2.828-.371-4.244-.325-4.413-.694-8.824-1.062-13.235l-.647-7.748c-.28-3.361-.564-6.742-1.43-10.006a19.806 19.806 0 0 0-4.986-8.808z" fill="#111B47"/><path opacity=".1" d="m39.467 226.761-.573 4.328c-.195 1.465-.389 2.931-.493 4.405-.348 4.903.3 9.825.13 14.737-.132 3.781-.748 7.56-.45 11.332.263 3.337 1.235 6.576 2.201 9.787l1.381 4.589a.891.891 0 0 0 .418.68c.24.151.538.184.806.089l6.113-.541c-.392-1.754-.827-3.582-1.037-5.365-.167-1.411-.267-2.828-.371-4.244-.325-4.413-.694-8.824-1.062-13.235l-.647-7.748c-.28-3.361-.564-6.742-1.43-10.006a19.806 19.806 0 0 0-4.986-8.808z" fill="#000"/><path d="M50.847 376.201c-.357.699-.667 1.42-.929 2.159-.694 2.04-.8 4.227-.898 6.381-.048.415-.01.836.113 1.236.297.774 1.153 1.166 1.953 1.381 3.352.902 6.886.053 10.342-.256 3.393-.304 6.85-.084 10.173-.833a5.031 5.031 0 0 0 1.409-.489 4.38 4.38 0 0 0 1.78-2.326c.1-.244.169-.501.202-.764.11-1.133-.878-2.117-1.953-2.49-1.075-.372-2.244-.311-3.376-.427a10.645 10.645 0 0 1-9.418-8.887c-.04-.247-5.596-.101-6.181.22-.685.375-1.099 1.313-1.484 1.947a41.127 41.127 0 0 0-1.733 3.148z" fill="#3F3D56"/><path opacity=".1" d="M50.847 376.201c-.357.699-.667 1.42-.929 2.159-.694 2.04-.8 4.227-.898 6.381-.048.415-.01.836.113 1.236.297.774 1.153 1.166 1.953 1.381 3.352.902 6.886.053 10.342-.256 3.393-.304 6.85-.084 10.173-.833a5.031 5.031 0 0 0 1.409-.489 4.38 4.38 0 0 0 1.78-2.326c.1-.244.169-.501.202-.764.11-1.133-.878-2.117-1.953-2.49-1.075-.372-2.244-.311-3.376-.427a10.645 10.645 0 0 1-9.418-8.887c-.04-.247-5.596-.101-6.181.22-.685.375-1.099 1.313-1.484 1.947a41.127 41.127 0 0 0-1.733 3.148z" fill="#000"/><path d="M59.847 376.201c-.357.699-.667 1.42-.929 2.159-.694 2.04-.8 4.227-.898 6.381-.048.415-.01.836.113 1.236.297.774 1.153 1.166 1.953 1.381 3.352.902 6.886.053 10.342-.256 3.393-.304 6.85-.084 10.173-.833a5.031 5.031 0 0 0 1.409-.489 4.38 4.38 0 0 0 1.78-2.326c.1-.244.169-.501.202-.764.11-1.133-.878-2.117-1.953-2.49-1.075-.372-2.244-.311-3.376-.427a10.645 10.645 0 0 1-9.418-8.887c-.04-.247-5.596-.101-6.181.22-.685.375-1.099 1.313-1.484 1.947a41.127 41.127 0 0 0-1.733 3.148z" fill="#3F3D56"/><path d="M82.999 321.716c.07 11.047-3.111 21.844-6.843 32.228a294.712 294.712 0 0 1-4.703 12.224c-.982 2.393-2.088 5.049-1.036 7.412-3.027-1.163-6.126-1.851-9.322-1.313 1.217-2.504 1.102-5.418 1.157-8.205a72.103 72.103 0 0 1 1.206-11.274 63.232 63.232 0 0 1 5.458-16.298 12.408 12.408 0 0 0 1.058-3.436 22.064 22.064 0 0 0-.45-7.931 47.59 47.59 0 0 0-6.528-16.152c-.01.109-.02.221-.032.33a48.59 48.59 0 0 1-.82 4.889c-.715 3.422-1.548 6.845-1.424 10.285a55.856 55.856 0 0 1-.669 10.904 16.623 16.623 0 0 1-1.085 4.123c-.35.79-.805 1.534-1.08 2.353a10.85 10.85 0 0 0-.424 2.913c-.407 8.318-.006 18.962 1.678 27.117a15.564 15.564 0 0 0-8.16 1.876c-2.035-5.798-3.331-14.035-4.301-20.142a60.201 60.201 0 0 1 .658-21.704c.477-2.38.656-4.811.532-7.236-.216-4.83-1.393-9.554-2.561-14.243a37264.9 37264.9 0 0 1-4.322-17.315c-.562-2.256-1.13-4.561-.953-6.882.124-1.272.389-2.526.789-3.739a41.977 41.977 0 0 1 5.604-11.576c9.753.554 19.625-.369 29.365-1.125.473-.094.965-.01 1.38.237.331.341.528.791.555 1.267l3.659 20.936a53.25 53.25 0 0 1 1.042 8.847c.018 2.964-.458 5.917-.348 8.878.149 3.989.896 7.761.92 11.752z" fill="#2F2E41"/><path opacity=".1" d="M63 309.942a46.43 46.43 0 0 1-.837 4.819c-2.161-3.652-4.491-7.213-6.481-10.957-.514-.965-1.002-1.942-1.493-2.917l-1.467-2.925c-.274-.548-.55-1.097-.797-1.659a11.835 11.835 0 0 1-.925-2.535c.724-.13 2.508 1.776 3.043 2.274a40.867 40.867 0 0 1 3.11 3.348 36.555 36.555 0 0 1 3.229 4.13A19.85 19.85 0 0 1 63 309.942z" fill="#000"/><path d="M72 208.377s-5.551 8.961-4.523 10.837C68.505 221.089 50 217.546 50 217.546s10.075-8.961 9.047-12.712C58.019 201.083 72 208.377 72 208.377z" fill="#EFB7B9"/><path d="M66.5 210.761c6.904 0 12.5-5.596 12.5-12.5 0-6.903-5.596-12.5-12.5-12.5s-12.5 5.597-12.5 12.5c0 6.904 5.596 12.5 12.5 12.5z" fill="#EFB7B9"/><path d="M71.863 216.975a12.675 12.675 0 0 0-5.243-4.204 19.01 19.01 0 0 0-3.726-.913l-4.975-.869c-1.219-.213-2.524-.417-3.655.083a5.927 5.927 0 0 0-1.558 1.132c-1.73 1.591-3.405 3.341-5.573 4.259-.593.251-1.214.435-1.807.689-2.425 1.038-4.239 3.204-5.27 5.62-1.08 2.535-1.112 5.282-1.026 8.033-.003.95.091 1.897.28 2.828.251.885.566 1.752.944 2.592a46.674 46.674 0 0 1 1.723 5.495 172.703 172.703 0 0 1 3.214 14.854c.075.719.287 1.417.627 2.056a7.35 7.35 0 0 0 1.72 1.642c.522.429 1.004.904 1.441 1.419.213.219.37.487.456.78.161.74-.497 1.373-1.03 1.913a9.222 9.222 0 0 0-2.33 4.029c-.26.311-.392.709-.37 1.113.108.28.147.581.117.879a2.043 2.043 0 0 1-.469.724 2.717 2.717 0 0 0-.517 2.19 35.23 35.23 0 0 0 12.21 2.84c1.03.048 2.066.048 3.09.173.73.09 1.451.243 2.182.327 1.064.099 2.133.126 3.2.081 5.55-.109 11.262-.252 16.359-2.438.48-2.597-.554-5.243-1.203-7.804-1.032-4.072-1.292-8.296-2.06-12.425-.525-2.827-1.288-5.608-1.726-8.449-.437-2.841-.54-5.787.246-8.553.697-2.451.907-4.947 1.63-7.39.721-2.444 1.227-5.094.412-7.509-1.01-2.994-4.138-5.362-7.313-5.197z" fill="#111B47"/><path d="M77.838 192.258c.609-2.184-.59-4.458-2.022-6.232-1.54-1.907-3.53-3.627-5.96-4.105-1.974-.39-4.02.08-6.027-.076-1.78-.139-3.485-.765-5.255-.99a16.922 16.922 0 0 0-4.803.179 18.082 18.082 0 0 0-4.378 1.201c-5.332 2.32-8.456 8.049-9.181 13.732-.726 5.683.546 11.408 1.81 16.999l1.142 5.054c1.189 5.26 2.382 10.548 2.7 15.927.318 5.379-.276 10.902-2.53 15.814 7.287-3.842 12.932-10.119 15.916-17.693.81-2.08 1.41-4.239 2.308-6.284.772-1.76 1.76-3.427 2.445-5.221a16.726 16.726 0 0 0 1.092-6.344c-.039-1.627-.316-3.245-.268-4.871.049-1.626.47-3.323 1.614-4.498 1.018-1.046 2.463-1.548 3.775-2.206a15.592 15.592 0 0 0 5.274-4.321c.825-1.056.87-1.507 1.08-2.726.203-1.185.947-2.189 1.268-3.339z" fill="#2F2E41"/><path d="M77.893 284.677c.127 1.292-.107 2.616.175 3.882.213.952.705 1.817.995 2.749.288 1.079.436 2.19.44 3.307.043.937-.03 2.076-.857 2.515-.364.193-.8.196-1.178.358-.379.162-.704.621-.487.971.182.294.596.298.935.368.339.069.712.421.515.705a.6.6 0 0 1-.302.193 3.454 3.454 0 0 0-.972.468.981.981 0 0 0-.4.946.583.583 0 0 0 .835.385 2.595 2.595 0 0 0-.244 1.036c1.325.57 2.816-.176 4.063-.901.54-.299 1.062-.632 1.563-.995a7.791 7.791 0 0 0 3.012-6.629 15.327 15.327 0 0 0-.292-1.897 29.134 29.134 0 0 0-.765-3.222c-.356-1.116-.846-2.185-1.266-3.279-.895-2.331-1.471-4.772-2.278-7.135a.826.826 0 0 0-.965-.728 9.493 9.493 0 0 0-2.703.249c-.534.157-1.411.5-1.65 1.06-.217.505.145.957.375 1.39a11.553 11.553 0 0 1 1.451 4.204z" fill="#EFB7B9"/><path opacity=".1" d="M77.314 222.761c.258.269.475.578.641.914 1.72 3.202 1.741 7.034 1.822 10.687.09 4.112.31 8.22.53 12.327l.657 12.283c.063 1.174.125 2.349.286 3.512.773.2.805 1.223.715 2.034-.553 5.013-1.93 10.173-.488 14.996.055.249.171.479.337.669a3.79 3.79 0 0 0-2.236-.031c-.719.155-1.41.424-2.125.591-.911.213-1.944.304-2.565 1.018a51.923 51.923 0 0 1-1.674-6.625c-.341-2.04-.434-4.16-1.245-6.055-.328-.766-.765-1.475-1.164-2.204-2.1-3.834-3.129-8.17-4.134-12.444a18.594 18.594 0 0 1-.32-6.182c.143-.942.227-1.892.251-2.845a23.496 23.496 0 0 0-.385-2.993 20.59 20.59 0 0 1 .583-8.666c.752-2.61 1.412-5.356 2.986-7.548 1.574-2.193 4.872-3.401 7.528-3.438z" fill="#000"/><path d="M77.314 221.761c.258.269.475.578.641.914 1.72 3.202 1.741 7.034 1.822 10.687.09 4.112.31 8.22.53 12.327l.657 12.283c.063 1.174.125 2.349.286 3.512.773.2.805 1.223.715 2.034-.553 5.013-1.93 10.173-.488 14.996.055.249.171.479.337.669a3.79 3.79 0 0 0-2.236-.031c-.719.155-1.41.424-2.125.591-.911.213-1.944.304-2.565 1.018a51.906 51.906 0 0 1-1.674-6.625c-.341-2.04-.434-4.16-1.245-6.055-.328-.766-.765-1.475-1.164-2.204-2.1-3.834-3.129-8.17-4.134-12.444a18.594 18.594 0 0 1-.32-6.182c.143-.942.227-1.892.251-2.845a23.496 23.496 0 0 0-.385-2.993 20.59 20.59 0 0 1 .583-8.666c.752-2.61 1.412-5.356 2.986-7.548 1.574-2.193 4.872-3.401 7.528-3.438z" fill="#111B47"/><g opacity=".1" fill="#000"><path d="M75.697 185.342c-1.535-1.921-3.519-3.653-5.94-4.135-1.969-.392-4.008.081-6.01-.077-1.773-.139-3.473-.77-5.237-.997a16.708 16.708 0 0 0-4.788.181c-1.5.217-2.968.623-4.364 1.209-.755.333-1.476.739-2.152 1.211a18.844 18.844 0 0 1 3.855-.999 16.743 16.743 0 0 1 4.787-.18c1.765.227 3.465.858 5.239.997 2 .158 4.04-.315 6.008.076 2.422.483 4.406 2.215 5.94 4.135 1.43 1.787 2.624 4.077 2.016 6.277-.32 1.158-1.06 2.17-1.264 3.364-.21 1.227-.253 1.681-1.076 2.745a15.633 15.633 0 0 1-3.791 3.503c.4-.189.803-.374 1.195-.572a15.586 15.586 0 0 0 5.257-4.353c.823-1.064.867-1.518 1.076-2.745.204-1.194.945-2.205 1.265-3.364.607-2.2-.587-4.489-2.016-6.276zM66.352 204.301c.215-.22.448-.422.698-.602-1.193.574-2.448 1.078-3.36 2.024-1.14 1.184-1.56 2.893-1.608 4.53-.048 1.638.228 3.268.267 4.906.05 2.179-.32 4.348-1.089 6.39-.682 1.807-1.668 3.486-2.437 5.259-.895 2.06-1.493 4.234-2.3 6.329a34.358 34.358 0 0 1-13.116 16.193c-.03.069-.058.138-.089.206a34.344 34.344 0 0 0 15.865-17.821c.808-2.095 1.406-4.269 2.3-6.329.77-1.772 1.756-3.451 2.438-5.259a16.998 16.998 0 0 0 1.089-6.39c-.039-1.638-.315-3.268-.267-4.905.048-1.638.468-3.347 1.61-4.531z"/></g><path d="M338.525 385.583c-.6.682-1.628.819-2.558.909a15.505 15.505 0 0 1-3.628.066c-1.434-.201-2.294.566-3.604-.024-.793-.357-2.013.357-2.806 0-1.086-.49-4.838-.591-5.5-1.546-.661-.955-.594-2.464.452-3.028.297-.133.603-.245.916-.337 1.751-.656 5.299-5.603 7.162-5.856a5.216 5.216 0 0 1 2.65.587c1.837.768 5.08 1.374 5.882 3.321.624 1.518 2.333 4.425 1.034 5.908zM351.47 386.161c.593.722 1.609.868 2.529.963 1.187.173 2.392.197 3.585.069 1.418-.213 3.146 1.014 4.441.389.784-.378 1.99-.181 2.773-.559 1.074-.518 6.124.637 6.778-.374.653-1.011.587-2.609-.447-3.206a6.845 6.845 0 0 0-.906-.357c-1.731-.695-7.455-7.051-9.297-7.319a4.879 4.879 0 0 0-2.62.622c-1.815.813-5.022 1.454-5.814 3.517-.617 1.606-2.306 4.685-1.022 6.255z" fill="#2F2E41"/><path d="M357.088 273.604a27.813 27.813 0 0 1 1.478 3.332c5.015 13.161 5.435 27.543 5.643 41.612a52.548 52.548 0 0 0 .394 6.844c.21 1.44.542 2.895.328 4.334-.185 1.245-.776 2.472-.54 3.708.105.555.373 1.069.479 1.623a5.751 5.751 0 0 1-.05 1.828l-.673 4.962c-.383 2.827-1.267 5.55-1.219 8.402.033 1.946.066 3.895.285 5.828.221 1.964.634 3.912.655 5.888.016 1.479-.188 2.951-.32 4.424a45.422 45.422 0 0 0-.126 6.26c.078 1.608.264 3.277 1.124 4.643-.963 1.37-1.917 2.597-3.459 3.268-3.134 1.363-6.729.901-10.115.413.187-.62.478-1.322.207-1.911a3.846 3.846 0 0 0-.581-.785 9.172 9.172 0 0 1-1.507-3.476c-.41-1.481-.82-3.076.021-4.498.29-.507.418-1.088.367-1.669-.701-9.329-2.793-18.982-.866-28.139.206-.977.451-1.949.566-2.941a35.65 35.65 0 0 0 .051-4.287l-.04-1.989c-.101-2.122-.014-4.297-.443-6.397-.307-1.503-.881-3.014-.174-4.546a2.479 2.479 0 0 0-.105-2.207 40.457 40.457 0 0 1-3.567-8.169 14.36 14.36 0 0 0-.751-2.325 16.668 16.668 0 0 0-1.483-2.264c-1.678-2.413-2.682-5.214-3.667-7.978.105-.254.025-.607-.249-.57-.271.068-.504.24-.647.478-1.349 1.8-1.462 4.2-1.523 6.442a47.05 47.05 0 0 0 .107 6.249c.116 1.089.307 2.169.406 3.26a38.544 38.544 0 0 1-.098 6.106l-.689 9.987a7.227 7.227 0 0 0 .148 2.47c.443 1.4.658 2.86.639 4.327a77.31 77.31 0 0 0 1.567 17.979c.336 1.632.725 3.254 1.011 4.896.673 3.869.765 7.812.856 11.738.055 2.413.095 4.914-.864 7.133a8.206 8.206 0 0 0-.816 2.178 4.701 4.701 0 0 1-.157 1.162c-.281.718-1.125 1.024-1.885 1.188a15.388 15.388 0 0 1-4.345.307 2.543 2.543 0 0 1-.991-.218c-.543-.279-.831-.871-1.244-1.318-.891-.965-2.372-1.261-3.183-2.292-1.015-1.29-.589-3.159.015-4.682.604-1.522 1.352-3.176.832-4.728-.613-1.83-2.785-2.816-3.368-4.655 1.664-7.419-2.423-15.093-2.073-22.685.082-1.769.391-3.524.397-5.295.016-4.56-1.975-8.997-1.648-13.546.833-11.559-3.136-23.099-4.818-34.567a22.545 22.545 0 0 1-.354-5.193c.249-2.87 1.593-5.542 3.208-7.936 1.158-1.716 2.55-3.395 4.468-4.197 1.579-.661 3.348-.659 5.062-.645 4.276.033 8.552.065 12.827.142 2.91-.041 5.816.217 8.672.769 2.313.525 4.476 1.595 6.825 1.928z" fill="#2F2E41"/><path d="M288.641 220.886c-.429-2.07.382-4.285-.252-6.304-.229-.728-.791-1.484-1.564-1.463-.75.02-1.258.745-1.924 1.088-1.073.553-2.376.051-3.448-.504-1.072-.554-2.267-1.181-3.43-.849-.137.718.355 1.403.89 1.908a5.183 5.183 0 0 1 1.439 1.645c.175.695.241 1.412.197 2.127.122 1.64 1.175 3.052 2.228 4.328a78.587 78.587 0 0 0 5.396 5.899c-.003-.003 2.882-3.522 2.826-4.136-.052-.58-1.023-1.123-1.375-1.59a5.417 5.417 0 0 1-.983-2.149zM370.591 263.137c.242.649.424 1.32.542 2.005.701 3.507 1.143 7.063 1.579 10.616.116.948.232 1.898.268 2.853a13.419 13.419 0 0 1-1.311 6.561c-1 2.038-2.698 3.618-4.766 4.432-.636.234-1.526.276-1.804-.36a1.392 1.392 0 0 1 .006-.906c.251-.946.763-1.796 1.095-2.715a7.544 7.544 0 0 0 .235-4.289c-.13-.544-.406-1.151-.939-1.259a5.008 5.008 0 0 1-.623 3.65c-.151.302-.412.53-.726.635a.976.976 0 0 1-1.023-.681c-.13-.438-.158-.9-.083-1.351a47.07 47.07 0 0 1 1.006-6.769c.594-2.444 1.535-4.856 1.474-7.376-.054-2.283-.936-4.524-.689-6.794a.726.726 0 0 1 .126-.391.71.71 0 0 1 .276-.175 13.48 13.48 0 0 1 1.901-.649c.383-.1 1.69-.569 2.057-.359.297.17.389 1.187.537 1.531.263.609.613 1.174.862 1.791zM326 195.761a9 9 0 1 0 0-18 9 9 0 0 0 0 18z" fill="#A1616A"/><path d="M334.684 193.371c-.001.593.046 1.184.14 1.769.128.591.308 1.17.54 1.728.309.909.745 1.769 1.295 2.554a3.808 3.808 0 0 0 2.341 1.532 66.354 66.354 0 0 1-20 5.807 8.482 8.482 0 0 0 2.653-2.845 8.281 8.281 0 0 0 .703-2.317c.59-3.36.29-6.817-.869-10.023-.115-.316-.228-.704-.01-.96a.908.908 0 0 1 .328-.215 20.55 20.55 0 0 1 8.696-1.629c.762.005 1.524.039 2.284.094.408.03 1.311-.057 1.636.244.388.359.194 1.473.206 1.96l.057 2.301z" fill="#A1616A"/><path d="M338.95 200.544c-2.802-3.562-7.691-4.77-11.85-2.928-4.406 2.086-6.576 7.095-10.451 10.041a18.277 18.277 0 0 1-2.806 1.714 7.799 7.799 0 0 1-1.846.725c-.725.158-1.481.136-2.202.308a5.672 5.672 0 0 0-3.277 2.522 17.613 17.613 0 0 1-1.204 1.843c-.405.477-.908.862-1.336 1.319-1.541 1.642-1.959 4-2.311 6.216a29.573 29.573 0 0 1-3.931 3.439 5.545 5.545 0 0 1-1.461.801c-1.355.436-2.85-.118-4.006-.946-1.155-.828-2.096-1.919-3.236-2.768a116.335 116.335 0 0 1-3.256 4.406 1.426 1.426 0 0 1-.728.592c-.209.699.293 1.423.669 2.05l2.019 3.364a16.735 16.735 0 0 0 2.436 3.386 5.711 5.711 0 0 0 3.694 1.782 7.459 7.459 0 0 0 2.605-.495c3.847-1.283 7.378-3.331 11.037-5.071a4.886 4.886 0 0 1 2.168-.63 1.74 1.74 0 0 1 1.713 1.222c.419 2.102.836 4.196 1.413 6.26.544 1.947 1.05 3.905 1.516 5.872.312 1.203.535 2.428.667 3.664.06.702.067 1.407.073 2.111l.078 8.511c.008.917-.518 1.488-.924 2.312a5.4 5.4 0 0 0-.261 4.09c.228.664.584 1.278.836 1.933.61 1.583.587 3.327.555 5.022l-.073 3.884a.824.824 0 0 0 .085.468c.239.371.815.154 1.179-.097l1.831-1.258c2.45.335 4.925.453 7.396.354 7.028-.101 14.057.177 21.068.663 2.34.163 4.758.339 6.969-.435 1.122-.393 2.156-1.021 3.303-1.336a3.037 3.037 0 0 0 1.31-.535c.642-.589.472-1.622.21-2.45a26.555 26.555 0 0 0-.78-2.139c-.3-.646-.544-1.316-.73-2.002-.351-1.549-.01-3.339-.982-4.601-2.177-2.824-.636-7.168-1.55-10.605-.295-1.112-.732-2.184-1.009-3.301-.174-.701-.284-1.416-.394-2.13a25.346 25.346 0 0 1-.424-4.681c.026-.785.126-1.566.226-2.346l.691-5.414a16.92 16.92 0 0 1 1.78 5.118 75.44 75.44 0 0 0 2.321 7.899c.522 1.561 1.043 3.123 1.606 4.67.357.881.632 1.792.821 2.722.124.75.128 1.515.215 2.271.19 1.62.761 3.173 1.669 4.533.167.315.445.559.781.687.226.042.459.032.682-.027a27.18 27.18 0 0 0 7.028-2.412 2.8 2.8 0 0 0 1.187-.919c.598-.964-.07-2.167-.361-3.261-.311-1.172-.238-2.583-1.169-3.368-3.242-2.736-1.633-8.291-3.255-12.194-.285-.685-.617-1.352-.862-2.052-.188-.535-.324-1.086-.461-1.636a401.052 401.052 0 0 0-3.637-13.576c-1.339-4.671-1.196-9.536-2.882-14.095a14.845 14.845 0 0 0-1.235-2.75 7.491 7.491 0 0 0-2.236-2.283c-2.447-1.605-4.917-2.972-7.791-3.554-2.875-.582-5.987-.492-8.92-.479z" fill="#D0CDE1"/><path d="M317.599 188.89c-1.25-.669-.92-2.486-1.133-3.881-.437-2.87-3.7-4.573-4.466-7.375a5.055 5.055 0 0 0 2.589-.364 3.903 3.903 0 0 0-.522-2.691c2.684-1.084 4.856-3.21 7.581-4.187 3.427-1.229 7.243-.475 10.7.667 1.725.57 3.52 1.31 4.563 2.79 1.145 1.625 1.128 3.764 1.066 5.748-.096 3.111-.22 6.333-1.613 9.121-1.774 3.548-6.797 6.835-10.947 5.874-1.726-.4-2.234-1.477-2.961-2.968-.453-.928-.623-2.005-1.642-2.488-.997-.471-2.204.296-3.215-.246z" fill="#2F2E41"/><g opacity=".1" fill="#000"><path d="M355.612 255.05c.012.245.019.492.021.74a20.054 20.054 0 0 1-.021-.74zM315.526 264.331c.61 1.594.587 3.35.555 5.055l-.025 1.336a9.063 9.063 0 0 0-.53-2.695c-.252-.659-.608-1.276-.836-1.944a5.481 5.481 0 0 1 .041-3.592c.228.628.557 1.216.795 1.84z"/></g><path d="m314.483 175.73-.009.004a5.715 5.715 0 0 0-.461-1.631c.142-.077.282-.159.421-.244.11.613.126 1.249.049 1.871z" fill="#000" opacity=".1"/><path d="m24 157.761-2.175-1.984C14.1 148.606 9 143.952 9 138.154a8.297 8.297 0 0 1 2.37-5.959 8.109 8.109 0 0 1 5.88-2.433A8.836 8.836 0 0 1 24 132.966a8.835 8.835 0 0 1 6.75-3.204 8.109 8.109 0 0 1 5.878 2.433 8.297 8.297 0 0 1 2.37 5.959c0 5.798-5.099 10.452-12.823 17.623L24 157.761z" fill="#FF6584"/><path clip-rule="evenodd" d="m28 152.761-2.175-1.984C18.1 143.606 13 138.952 13 133.154a8.297 8.297 0 0 1 2.37-5.959 8.109 8.109 0 0 1 5.88-2.433A8.836 8.836 0 0 1 28 127.966a8.835 8.835 0 0 1 6.75-3.204 8.109 8.109 0 0 1 5.878 2.433 8.297 8.297 0 0 1 2.37 5.959c0 5.798-5.099 10.452-12.823 17.623L28 152.761z" stroke="#3F3D56" stroke-width="2"/></svg>