<svg width="16" height="16" fill="none" xmlns="http://www.w3.org/2000/svg"><path d="M16 2.872a6.839 6.839 0 0 1-1.89.518 3.262 3.262 0 0 0 1.443-1.813 6.555 6.555 0 0 1-2.08.794 3.28 3.28 0 0 0-5.674 2.243c0 .26.022.51.076.748a9.284 9.284 0 0 1-6.761-3.43 3.285 3.285 0 0 0 1.008 4.384A3.24 3.24 0 0 1 .64 5.91v.036A3.295 3.295 0 0 0 3.268 9.17a3.274 3.274 0 0 1-.86.108 2.9 2.9 0 0 1-.621-.056 3.311 3.311 0 0 0 3.065 2.285 6.59 6.59 0 0 1-4.067 1.4c-.269 0-.527-.013-.785-.046a9.234 9.234 0 0 0 5.032 1.472c6.036 0 9.336-5 9.336-9.334 0-.145-.005-.285-.012-.424A6.544 6.544 0 0 0 16 2.872z" fill="#B0B8BC"/></svg>